<?xml version="1.0" encoding="utf-8"?>
<!-- Generator: Adobe Illustrator 22.1.0, SVG Export Plug-In . SVG Version: 6.00 Build 0)  -->
<svg version="1.1" id="Layer_1" xmlns="http://www.w3.org/2000/svg" xmlns:xlink="http://www.w3.org/1999/xlink" x="0px" y="0px"
	 viewBox="0 0 64.5 57.8" style="enable-background:new 0 0 64.5 57.8;" xml:space="preserve">
<style type="text/css">
	.st0{fill:none;stroke:#33669A;stroke-width:2.800000e-02;stroke-miterlimit:10;}
	.st1{fill:none;stroke:#33669A;stroke-width:2.800000e-02;stroke-linecap:round;stroke-linejoin:round;stroke-miterlimit:10;}
</style>
<circle class="st0" cx="32.1" cy="40.6" r="2.8"/>
<circle class="st0" cx="23.4" cy="22.2" r="2.8"/>
<path class="st0" d="M50.3,24.9c-0.9-3.7-3.8-6.6-7.5-7.5l0,0c-0.5,2.6-3.9,4.2-7.6,3.5c-3.7-0.7-6.3-3.4-5.8-6h-0.1
	c-4-0.7-8,1-10.2,4.3c-5.3,8-3.2,18.7,4.8,24.1c8,5.3,18.7,3.2,24.1-4.8C50.5,34.6,51.4,29.6,50.3,24.9z"/>
<path class="st1" d="M44.8,31.7c-0.5,1.3-1.7,8.2-12.3,7.8c-8-0.3-9.6-6.6-10.4-9"/>
<path class="st1" d="M32.8,18.2c11.3,0.3,13.2,8.2,12,13.5"/>
<path class="st1" d="M22.1,30.5c-1.3-6.2,4.4-12.4,10.7-12.3"/>
<g id="LINE_17_">
	<path class="st1" d="M46.8,24.2"/>
	<path class="st1" d="M45.4,21.9"/>
	<line class="st1" x1="45.4" y1="21.9" x2="45.4" y2="21.9"/>
	<line class="st1" x1="46.8" y1="24.2" x2="46.8" y2="24.2"/>
</g>
<g id="LINE_16_">
	<path class="st1" d="M45.4,26.6"/>
	<path class="st1" d="M46.8,24.2"/>
	<line class="st1" x1="46.8" y1="24.2" x2="46.8" y2="24.2"/>
	<line class="st1" x1="45.4" y1="26.6" x2="45.4" y2="26.6"/>
</g>
<g id="LINE_15_">
	<path class="st1" d="M42.7,26.6"/>
	<path class="st1" d="M45.4,26.6"/>
	<line class="st1" x1="45.4" y1="26.6" x2="45.4" y2="26.6"/>
	<line class="st1" x1="42.7" y1="26.6" x2="42.7" y2="26.6"/>
</g>
<g id="LINE_14_">
	<path class="st1" d="M41.3,24.2"/>
	<path class="st1" d="M42.7,26.6"/>
	<line class="st1" x1="42.7" y1="26.6" x2="42.7" y2="26.6"/>
	<line class="st1" x1="41.3" y1="24.2" x2="41.3" y2="24.2"/>
</g>
<g id="LINE_13_">
	<path class="st1" d="M42.7,21.9"/>
	<path class="st1" d="M41.3,24.2"/>
	<line class="st1" x1="41.3" y1="24.2" x2="41.3" y2="24.2"/>
	<line class="st1" x1="42.7" y1="21.9" x2="42.7" y2="21.9"/>
</g>
<g id="LINE_12_">
	<path class="st1" d="M45.4,21.9"/>
	<path class="st1" d="M42.7,21.9"/>
	<line class="st1" x1="42.7" y1="21.9" x2="42.7" y2="21.9"/>
	<line class="st1" x1="45.4" y1="21.9" x2="45.4" y2="21.9"/>
</g>
<path class="st1" d="M46.8,24.2"/>
<path class="st1" d="M45.4,26.6"/>
<path class="st1" d="M41.3,24.2c0.9,1.6,0.9,1.4,1.4,2.4"/>
<path class="st1" d="M42.7,26.6c1.8,0,1.3,0.1,2.7,0"/>
<path class="st1" d="M45.4,26.6c0.7-1.1,0.6-1.2,1.4-2.4"/>
<path class="st1" d="M41.3,24.2c0.7-1.1,0.6-1.1,1.4-2.3"/>
<path class="st1" d="M42.7,21.9c1.8-0.1,1.3,0,2.7,0"/>
<path class="st1" d="M45.4,21.9c0.9,1.6,0.9,1.3,1.4,2.3"/>
<path class="st1" d="M42.7,26.6"/>
<path class="st1" d="M41.3,24.2"/>
<path class="st1" d="M42.7,21.9"/>
<path class="st1" d="M41.3,24.2"/>
</svg>
